<?xml version="1.0" encoding="utf-8"?><svg viewBox="0 0 32 32" xmlns="http://www.w3.org/2000/svg" xmlns:xlink="http://www.w3.org/1999/xlink"><style>:root>svg{display:none}:root>svg:target{display:block}</style><svg viewBox="0 0 32 32" id="Dribbble" xmlns="http://www.w3.org/2000/svg"><path d="M13.947 12.4c.32-.107.626-.227.933-.347a52.45 52.45 0 00-3.84-6.226C8 7.32 5.72 10.12 4.96 13.48c3.04.24 6.12-.107 8.987-1.08zm-.721 5.333c1.173-.6 2.373-1.08 3.627-1.453-.054-.16-.12-.32-.187-.467-.28-.666-.587-1.32-.893-1.96-.387.147-.774.307-1.187.454-2.52.84-5.213 1.28-7.893 1.28-.667 0-1.334-.04-2-.094-.014.174-.027.334-.027.507 0 2.573.88 4.947 2.32 6.854 1.747-2.094 3.867-3.867 6.24-5.12zm9.547-10.8A11.305 11.305 0 0016 4.667c-1.053 0-2.067.16-3.04.426a55.894 55.894 0 013.76 6.16 23.384 23.384 0 006.053-4.32zm-8.626 12.574a18.832 18.832 0 00-5.813 4.813 11.243 11.243 0 007.667 3.014c1.373 0 2.68-.254 3.906-.707a52.29 52.29 0 00-2.306-8.44c-1.2.333-2.347.76-3.454 1.32zm5.413-1.787a52.172 52.172 0 012.2 8.027 11.35 11.35 0 005.4-7.84c-1.626-.36-4.4-.72-7.6-.187zm-1.96-4.68c.32.667.626 1.32.92 1.987.106.267.2.533.306.8 3.52-.667 6.614-.32 8.507.067a11.264 11.264 0 00-3.08-7.627A25.046 25.046 0 0117.6 13.04z"/></svg><svg viewBox="0 0 32 32" id="Instagram" xmlns="http://www.w3.org/2000/svg"><path d="M16 19.76A3.773 3.773 0 0019.76 16 3.773 3.773 0 0016 12.24 3.773 3.773 0 0012.24 16 3.773 3.773 0 0016 19.76z"/><path d="M22.853 2.667H9.146a6.487 6.487 0 00-6.48 6.48v13.707a6.487 6.487 0 006.48 6.48h13.707a6.487 6.487 0 006.48-6.48V9.147a6.487 6.487 0 00-6.48-6.48zm.013 7.88c-.76 0-1.373-.613-1.373-1.36 0-.76.613-1.373 1.373-1.373a1.366 1.366 0 010 2.733zm-6.867-.307A5.77 5.77 0 0121.76 16 5.77 5.77 0 0116 21.76 5.77 5.77 0 0110.24 16 5.77 5.77 0 0116 10.24z"/></svg><svg viewBox="0 0 32 32" id="Linkedin" xmlns="http://www.w3.org/2000/svg"><path d="M22.853 2.667H9.146a6.487 6.487 0 00-6.48 6.48v13.706a6.487 6.487 0 006.48 6.48h13.707a6.487 6.487 0 006.48-6.48V9.146a6.487 6.487 0 00-6.48-6.48zm-10.96 9.56a1.377 1.377 0 01-1.374-1.36c0-.76.614-1.374 1.36-1.374h.014c.76 0 1.373.614 1.373 1.373 0 .747-.613 1.36-1.373 1.36zm.973 2.066v6.84c0 .56-.44 1-1 1-.547 0-1-.44-1-1v-6.84c0-.56.453-1 1-1 .56 0 1 .44 1 1zm8.267 6.84a1 1 0 01-1 1c-.56 0-1-.44-1-1v-3.12c0-.84-.174-.987-.307-1.107-.16-.146-.44-.24-.787-.253-.28.014-.56.107-.72.254-.133.12-.306.266-.306 1.106v3.12c0 .56-.44 1-1 1-.547 0-1-.44-1-1v-3.12c0-1.213.293-1.987.973-2.6.52-.466 1.227-.72 2.053-.76.894.04 1.6.293 2.134.76.666.613.96 1.387.96 2.6v3.12z"/></svg><svg viewBox="0 0 32 32" id="Pinterest" xmlns="http://www.w3.org/2000/svg"><path d="M16 2.667C8.652 2.667 2.665 8.652 2.665 16c0 7.346 5.987 13.333 13.333 13.333 7.347 0 13.334-5.986 13.334-13.333S23.346 2.666 15.999 2.666zm-2.027 25.306a.996.996 0 01-.96.733c-.094 0-.174 0-.267-.026a1 1 0 01-.707-1.227l.2-.76 2.8-10.507a.991.991 0 011.214-.706c.533.146.853.693.72 1.226l-1.027 3.88c.107 0 .227.04.333.08a2.66 2.66 0 001.04.227h.054c1.76 0 3.693-1.907 4.08-4.027.16-.946.04-1.826-.36-2.613-.934-1.84-3.134-2.667-4.774-2.667-1.92 0-3.48.6-4.493 1.72-.827.907-1.213 1.88-1.133 2.907.08 1.133.72 1.96 1.093 2.347.373.4.36 1.027-.04 1.413a.994.994 0 01-1.413-.026c-.56-.587-1.507-1.827-1.64-3.6-.08-1.08.146-2.72 1.64-4.387 1.386-1.534 3.52-2.374 5.986-2.374 2.307 0 5.227 1.16 6.56 3.747.414.813.84 2.147.534 3.88-.48 2.773-3.027 5.68-6.04 5.68h-.107a4.74 4.74 0 01-1.787-.4c-.013-.013-.026-.013-.04-.026l-1.253 4.72-.213.786z"/></svg><svg viewBox="0 0 25 24" id="ic_arrow-right" xmlns="http://www.w3.org/2000/svg"><path fill-rule="evenodd" clip-rule="evenodd" d="M10.793 15.707a1 1 0 010-1.414L13.086 12l-2.293-2.293a1 1 0 011.414-1.414l2.716 2.716a1.402 1.402 0 010 1.982l-2.716 2.716a1 1 0 01-1.414 0zM7.75 2.387C9.05 2.1 10.624 2 12.5 2s3.451.1 4.75.388c1.31.291 2.399.788 3.236 1.626.838.837 1.335 1.926 1.626 3.236.289 1.299.388 2.874.388 4.75s-.1 3.451-.388 4.75c-.291 1.31-.788 2.399-1.626 3.236-.837.838-1.926 1.335-3.236 1.626-1.299.289-2.874.388-4.75.388s-3.451-.1-4.75-.388c-1.31-.291-2.399-.788-3.236-1.626-.838-.837-1.335-1.926-1.626-3.236-.289-1.3-.388-2.874-.388-4.75s.1-3.451.388-4.75c.291-1.31.788-2.399 1.626-3.236.837-.838 1.926-1.335 3.236-1.626z"/></svg><svg viewBox="0 0 17 29" id="ic_navigation-arrow-left" xmlns="http://www.w3.org/2000/svg"><path fill-rule="evenodd" clip-rule="evenodd" d="M16.316 1.183a2.333 2.333 0 010 3.3L6.3 14.5l10.016 10.017a2.333 2.333 0 01-3.3 3.3L1.35 16.15a2.333 2.333 0 010-3.3L13.017 1.183a2.333 2.333 0 013.3 0z"/></svg><svg viewBox="0 0 17 29" id="ic_navigation-arrow-right" xmlns="http://www.w3.org/2000/svg"><path fill-rule="evenodd" clip-rule="evenodd" d="M.683 1.183a2.333 2.333 0 013.3 0L15.65 12.85a2.333 2.333 0 010 3.3L3.983 27.817a2.333 2.333 0 01-3.3-3.3L10.7 14.5.683 4.483a2.333 2.333 0 010-3.3z"/></svg></svg>