<?xml version="1.0" encoding="utf-8"?><svg viewBox="0 0 25 29" xmlns="http://www.w3.org/2000/svg" xmlns:xlink="http://www.w3.org/1999/xlink"><style>:root>svg{display:none}:root>svg:target{display:block}</style><svg viewBox="0 0 25 24" id="ic_arrow-right" xmlns="http://www.w3.org/2000/svg"><path fill-rule="evenodd" clip-rule="evenodd" d="M10.793 15.707a1 1 0 010-1.414L13.086 12l-2.293-2.293a1 1 0 011.414-1.414l2.716 2.716a1.402 1.402 0 010 1.982l-2.716 2.716a1 1 0 01-1.414 0zM7.75 2.387C9.05 2.1 10.624 2 12.5 2s3.451.1 4.75.388c1.31.291 2.399.788 3.236 1.626.838.837 1.335 1.926 1.626 3.236.289 1.299.388 2.874.388 4.75s-.1 3.451-.388 4.75c-.291 1.31-.788 2.399-1.626 3.236-.837.838-1.926 1.335-3.236 1.626-1.299.289-2.874.388-4.75.388s-3.451-.1-4.75-.388c-1.31-.291-2.399-.788-3.236-1.626-.838-.837-1.335-1.926-1.626-3.236-.289-1.3-.388-2.874-.388-4.75s.1-3.451.388-4.75c.291-1.31.788-2.399 1.626-3.236.837-.838 1.926-1.335 3.236-1.626z"/></svg><svg viewBox="0 0 17 29" id="ic_navigation-arrow-left" xmlns="http://www.w3.org/2000/svg"><path fill-rule="evenodd" clip-rule="evenodd" d="M16.316 1.183a2.333 2.333 0 010 3.3L6.3 14.5l10.016 10.017a2.333 2.333 0 01-3.3 3.3L1.35 16.15a2.333 2.333 0 010-3.3L13.017 1.183a2.333 2.333 0 013.3 0z"/></svg><svg viewBox="0 0 17 29" id="ic_navigation-arrow-right" xmlns="http://www.w3.org/2000/svg"><path fill-rule="evenodd" clip-rule="evenodd" d="M.683 1.183a2.333 2.333 0 013.3 0L15.65 12.85a2.333 2.333 0 010 3.3L3.983 27.817a2.333 2.333 0 01-3.3-3.3L10.7 14.5.683 4.483a2.333 2.333 0 010-3.3z"/></svg></svg>